<svg xmlns="http://www.w3.org/2000/svg" width="1200" height="675" viewBox="0 0 1200 675" role="img" aria-labelledby="title desc">
  <title id="title">ReproPilot bounded AutoResearch walkthrough</title>
  <desc id="desc">Animated walkthrough of an eight-node multi-agent DAG, governed Keep Reject trials, and hidden holdout validation.</desc>
  <defs>
    <filter id="shadow" x="-20%" y="-20%" width="140%" height="140%">
      <feDropShadow dx="0" dy="4" stdDeviation="8" flood-color="#2f241d" flood-opacity="0.10"/>
    </filter>
    <marker id="arrow" viewBox="0 0 10 10" refX="9" refY="5" markerWidth="6" markerHeight="6" orient="auto-start-reverse">
      <path d="M 0 0 L 10 5 L 0 10 z" fill="#b7aca4"/>
    </marker>
    <style>
      text { font-family: Inter, "Segoe UI", Arial, sans-serif; fill: #302821; }
      .muted { fill: #8b8179; }
      .tiny { font-size: 11px; }
      .small { font-size: 13px; }
      .label { font-size: 12px; font-weight: 650; }
      .title { font-size: 18px; font-weight: 700; }
      .node { fill: #fffdf9; stroke: #ddd4cd; stroke-width: 1; filter: url(#shadow); }
      .edge { fill: none; stroke: #b7aca4; stroke-width: 1.5; marker-end: url(#arrow); }
      .check { fill: #537c62; }
      .accent { fill: #b8683e; }
      .panel { fill: #fffdf9; stroke: #ddd4cd; filter: url(#shadow); }
    </style>
  </defs>

  <rect width="1200" height="675" fill="#f6f2eb"/>
  <rect x="0" y="0" width="1200" height="62" fill="#fbf8f2" stroke="#ded7cf"/>
  <rect x="0" y="62" width="244" height="613" fill="#fbf8f2" stroke="#ded7cf"/>

  <g transform="translate(22 20)">
    <path d="M0 10 8 2l8 8-8 8z M8 2l8-8 8 8-8 8z" fill="none" stroke="#b8683e" stroke-width="1.7" transform="translate(0 4) scale(.7)"/>
    <text x="29" y="20" font-size="17" font-weight="750">ReproPilot</text>
  </g>
  <text x="270" y="24" class="tiny muted">Research workspace</text>
  <text x="270" y="47" class="title">Bounded AutoResearch · exact revision</text>
  <circle cx="1056" cy="31" r="4" class="check"/>
  <text x="1067" y="36" class="small" fill="#537c62">Completed</text>
  <rect x="1135" y="15" width="44" height="32" rx="7" fill="#b8683e"/>
  <text x="1149" y="36" class="small" fill="#fff">8/8</text>

  <text x="18" y="94" class="label">RESEARCH</text>
  <text x="18" y="115" class="tiny muted">Sessions and source context</text>
  <rect x="14" y="137" width="216" height="62" rx="9" fill="#ede7df"/>
  <text x="27" y="160" class="label">AutoResearch verification</text>
  <text x="27" y="181" class="tiny muted">4 attachments · completed</text>
  <line x1="14" y1="219" x2="230" y2="219" stroke="#ded7cf"/>
  <text x="18" y="247" class="label">CONVERSATION</text>
  <circle cx="30" cy="280" r="13" fill="#f0ddd1"/>
  <text x="26" y="285" class="small accent">R</text>
  <text x="51" y="276" class="label">ReproPilot</text>
  <text x="51" y="295" class="tiny muted">Research response</text>
  <text x="20" y="330" class="small">Pinned revision and frozen</text>
  <text x="20" y="350" class="small">evaluation contract accepted.</text>
  <rect x="18" y="376" width="196" height="31" rx="15" fill="#f4e5dc"/>
  <text x="31" y="396" class="tiny accent">candidate.py · editable</text>
  <rect x="18" y="416" width="196" height="31" rx="15" fill="#e9eee9"/>
  <text x="31" y="436" class="tiny" fill="#537c62">2 evaluators · protected</text>
  <rect x="18" y="456" width="196" height="31" rx="15" fill="#eee9e3"/>
  <text x="31" y="476" class="tiny muted">autoresearch.spec/v1</text>
  <rect x="14" y="581" width="216" height="72" rx="10" fill="#fffdf9" stroke="#ded7cf"/>
  <text x="27" y="605" class="tiny muted">Evidence boundary</text>
  <text x="27" y="625" class="tiny">Model proposes; Python runtime</text>
  <text x="27" y="642" class="tiny">owns write, score and acceptance.</text>

  <text x="270" y="94" class="title">Workflow</text>
  <text x="270" y="114" class="tiny muted">Coder · Research Coding · Sandbox</text>

  <g id="workflow">
    <path class="edge" d="M425 174 H467"/>
    <path class="edge" d="M618 174 H660"/>
    <path class="edge" d="M811 174 H853"/>
    <path class="edge" d="M928 211 V252 H811"/>
    <path class="edge" d="M660 289 H618"/>
    <path class="edge" d="M467 289 H425"/>
    <path class="edge" d="M350 326 V378 H467"/>

    <g transform="translate(275 137)">
      <rect class="node" width="150" height="74" rx="8"/>
      <circle cx="18" cy="18" r="8" fill="#e7ddd6"/>
      <text x="35" y="22" class="tiny muted">CODER</text>
      <text x="13" y="46" class="label">Verify repository</text>
      <circle cx="132" cy="58" r="7" class="check"/><path d="m128 58 3 3 5-6" fill="none" stroke="#fff" stroke-width="1.5"/>
    </g>
    <g transform="translate(468 137)">
      <rect class="node" width="150" height="74" rx="8"/>
      <circle cx="18" cy="18" r="8" fill="#e7ddd6"/>
      <text x="35" y="22" class="tiny muted">CODER</text>
      <text x="13" y="46" class="label">Exact checkout</text>
      <circle cx="132" cy="58" r="7" class="check"/><path d="m128 58 3 3 5-6" fill="none" stroke="#fff" stroke-width="1.5"/>
    </g>
    <g transform="translate(661 137)">
      <rect class="node" width="150" height="74" rx="8"/>
      <circle cx="18" cy="18" r="8" fill="#f0ddd1"/>
      <text x="35" y="22" class="tiny accent">RESEARCH CODING</text>
      <text x="13" y="46" class="label">Freeze ResearchSpec</text>
      <circle cx="132" cy="58" r="7" class="check"/><path d="m128 58 3 3 5-6" fill="none" stroke="#fff" stroke-width="1.5"/>
    </g>
    <g transform="translate(854 137)">
      <rect class="node" width="150" height="74" rx="8"/>
      <circle cx="18" cy="18" r="8" fill="#e7ddd6"/>
      <text x="35" y="22" class="tiny muted">CODER</text>
      <text x="13" y="46" class="label">Resolve dependencies</text>
      <circle cx="132" cy="58" r="7" class="check"/><path d="m128 58 3 3 5-6" fill="none" stroke="#fff" stroke-width="1.5"/>
    </g>
    <g transform="translate(661 252)">
      <rect class="node" width="150" height="74" rx="8"/>
      <circle cx="18" cy="18" r="8" fill="#e0e8ec"/>
      <text x="35" y="22" class="tiny" fill="#547384">SANDBOX</text>
      <text x="13" y="46" class="label">Create runtime</text>
      <circle cx="132" cy="58" r="7" class="check"/><path d="m128 58 3 3 5-6" fill="none" stroke="#fff" stroke-width="1.5"/>
    </g>
    <g transform="translate(468 252)">
      <rect class="node" width="150" height="74" rx="8"/>
      <circle cx="18" cy="18" r="8" fill="#e0e8ec"/>
      <text x="35" y="22" class="tiny" fill="#547384">SANDBOX</text>
      <text x="13" y="46" class="label">Install dependencies</text>
      <circle cx="132" cy="58" r="7" class="check"/><path d="m128 58 3 3 5-6" fill="none" stroke="#fff" stroke-width="1.5"/>
    </g>
    <g transform="translate(275 252)">
      <rect class="node" width="150" height="74" rx="8"/>
      <circle cx="18" cy="18" r="8" fill="#f0ddd1"/>
      <text x="35" y="22" class="tiny accent">RESEARCH CODING</text>
      <text x="13" y="46" class="label">Governed trials</text>
      <circle cx="132" cy="58" r="7" class="check"/><path d="m128 58 3 3 5-6" fill="none" stroke="#fff" stroke-width="1.5"/>
    </g>
    <g transform="translate(468 378)">
      <rect class="node" width="150" height="74" rx="8"/>
      <circle cx="18" cy="18" r="8" fill="#f0ddd1"/>
      <text x="35" y="22" class="tiny accent">RESEARCH CODING</text>
      <text x="13" y="46" class="label">Hidden validation</text>
      <circle cx="132" cy="58" r="7" class="check"/><path d="m128 58 3 3 5-6" fill="none" stroke="#fff" stroke-width="1.5"/>
    </g>
  </g>

  <g id="phase1">
    <animate attributeName="opacity" values="1;1;0;0;0;1" keyTimes="0;.27;.33;.60;.94;1" dur="15s" repeatCount="indefinite"/>
    <rect x="692" y="369" width="358" height="118" rx="11" fill="#fffdf9" stroke="#ddd4cd" filter="url(#shadow)"/>
    <text x="714" y="399" class="label">8/8 nodes completed</text>
    <text x="714" y="425" class="small muted">Explicit Agent roles · typed Artifact handoff</text>
    <rect x="714" y="445" width="310" height="8" rx="4" fill="#e7e1da"/>
    <rect x="714" y="445" width="310" height="8" rx="4" fill="#537c62"/>
    <text x="714" y="473" class="tiny muted">Exact revision · isolated runtime · about 26 seconds</text>
  </g>

  <g id="phase2" opacity="0">
    <animate attributeName="opacity" values="0;0;1;1;0;0" keyTimes="0;.27;.33;.60;.66;1" dur="15s" repeatCount="indefinite"/>
    <rect class="panel" x="642" y="120" width="474" height="386" rx="12"/>
    <text x="667" y="153" class="tiny accent">ARTIFACT PREVIEW</text>
    <text x="667" y="182" class="title">Research Trial Ledger</text>
    <text x="1003" y="181" class="small muted">3 × worst</text>
    <line x1="667" y1="198" x2="1090" y2="198" stroke="#e2d9d2"/>
    <text x="667" y="225" class="tiny muted">BASELINE</text>
    <text x="1050" y="227" class="label">0.6667</text>
    <rect x="667" y="241" width="423" height="66" rx="8" fill="#f8eeee" stroke="#ead4d2"/>
    <circle cx="687" cy="263" r="7" fill="#a95c57"/>
    <text x="703" y="267" class="label">Trial 1 · Reject</text>
    <text x="687" y="290" class="tiny muted">Invalid structured status; rejected before file write</text>
    <rect x="667" y="319" width="423" height="96" rx="8" fill="#edf4ef" stroke="#cfded3"/>
    <circle cx="687" cy="342" r="7" class="check"/>
    <text x="703" y="346" class="label">Trial 2 · Keep</text>
    <text x="1059" y="346" class="label" fill="#537c62">1.0</text>
    <text x="687" y="370" class="tiny">Fix zero boundary: value &gt;= 0 → value &gt; 0</text>
    <text x="687" y="393" class="tiny muted">Samples [1.0, 1.0, 1.0] · SHA-256 recorded</text>
    <text x="667" y="447" class="tiny muted">qwen3-coder-plus · 2 requests · 2237 tokens</text>
    <rect x="667" y="465" width="423" height="25" rx="12" fill="#f0e2d8"/>
    <text x="801" y="482" class="tiny accent">target_score_reached</text>
  </g>

  <g id="phase3" opacity="0">
    <animate attributeName="opacity" values="0;0;0;0;1;1;0" keyTimes="0;.60;.66;.66;.72;.94;1" dur="15s" repeatCount="indefinite"/>
    <rect class="panel" x="642" y="120" width="474" height="386" rx="12"/>
    <text x="667" y="153" class="tiny accent">VALIDATION REPORT</text>
    <text x="667" y="182" class="title">Hidden holdout</text>
    <rect x="1000" y="145" width="90" height="30" rx="15" fill="#e6efe8"/>
    <text x="1024" y="165" class="label" fill="#537c62">PASSED</text>
    <line x1="667" y1="198" x2="1090" y2="198" stroke="#e2d9d2"/>
    <text x="667" y="229" class="tiny muted">FRESH PROCESS SCORES</text>
    <g transform="translate(667 246)">
      <rect width="126" height="58" rx="8" fill="#edf4ef" stroke="#cfded3"/>
      <text x="14" y="23" class="tiny muted">RUN 1</text><text x="14" y="45" class="title" fill="#537c62">1.0</text>
      <rect x="144" width="126" height="58" rx="8" fill="#edf4ef" stroke="#cfded3"/>
      <text x="158" y="23" class="tiny muted">RUN 2</text><text x="158" y="45" class="title" fill="#537c62">1.0</text>
      <rect x="288" width="126" height="58" rx="8" fill="#edf4ef" stroke="#cfded3"/>
      <text x="302" y="23" class="tiny muted">RUN 3</text><text x="302" y="45" class="title" fill="#537c62">1.0</text>
    </g>
    <text x="667" y="337" class="label">✓ Candidate hash intact</text>
    <text x="667" y="365" class="label">✓ Protected evaluators intact</text>
    <text x="667" y="393" class="label">✓ Final validation called no candidate model</text>
    <text x="667" y="421" class="label">✓ Task containers remaining: 0</text>
    <rect x="667" y="452" width="423" height="37" rx="8" fill="#302821"/>
    <text x="768" y="476" class="small" fill="#fff">Evidence accepted by runtime</text>
  </g>

  <line x1="270" y1="548" x2="1117" y2="548" stroke="#ded7cf"/>
  <g transform="translate(292 574)">
    <circle cx="0" cy="0" r="12" fill="#b8683e"/><text x="-3.5" y="4" class="tiny" fill="#fff">1</text>
    <text x="20" y="5" class="label">Multi-agent DAG</text>
    <line x1="148" y1="0" x2="242" y2="0" stroke="#ded7cf"/>
    <circle cx="263" cy="0" r="12" fill="#b8683e"/><text x="259.5" y="4" class="tiny" fill="#fff">2</text>
    <text x="283" y="5" class="label">Governed trials</text>
    <line x1="407" y1="0" x2="501" y2="0" stroke="#ded7cf"/>
    <circle cx="522" cy="0" r="12" fill="#b8683e"/><text x="518.5" y="4" class="tiny" fill="#fff">3</text>
    <text x="542" y="5" class="label">Hidden validation</text>
  </g>
  <text x="270" y="641" class="tiny muted">Live case replay · exact values from the recorded ReproPilot campaign · loops every 15 seconds</text>
</svg>
